<svg xmlns="http://www.w3.org/2000/svg" fill-rule="evenodd" stroke-linejoin="round" stroke-miterlimit="2" clip-rule="evenodd" viewBox="0 0 32 32" width="256" height="256"><rect width="32" height="32" fill="none"></rect><path fill-rule="nonzero" d="M23.112,15.884c0.352,0.045 0.622,0.278 0.896,0.57c1.879,1.999 2.964,4.686 2.982,7.455c0.012,1.865 -1.91,3.224 -3.885,3.951c-3.191,1.174 -6.717,1.353 -10.137,0.936c-2.251,-0.274 -4.549,-0.746 -6.413,-2.158c-0.848,-0.642 -1.552,-1.585 -1.545,-2.728c0.018,-2.821 1.136,-5.543 3.075,-7.555c0.493,-0.512 1.42,-0.576 1.754,0.135c0.203,0.432 0.019,0.902 -0.354,1.292c-1.53,1.618 -2.434,3.819 -2.475,6.029c-0.016,0.83 0.844,1.379 1.65,1.779c2.079,1.032 4.478,1.335 6.847,1.383c2.584,0.052 5.23,-0.204 7.557,-1.253c0.661,-0.298 1.341,-0.645 1.753,-1.254c0.226,-0.333 0.179,-0.807 0.143,-1.241c-0.174,-2.106 -1.128,-4.135 -2.638,-5.638c0,0 -0.231,-0.27 -0.278,-0.532c-0.106,-0.591 0.423,-1.198 1.068,-1.171Zm-7.067,-12.884c2.558,0.024 5.047,1.56 6.202,3.848c0.961,1.904 0.982,4.255 0.056,6.177c-1.513,3.139 -5.565,4.851 -8.985,3.428c-2.232,-0.929 -3.908,-3.086 -4.244,-5.483c-0.307,-2.192 0.499,-4.51 2.102,-6.038c1.272,-1.213 2.994,-1.915 4.779,-1.932c0.03,0 0.06,0 0.09,0Zm-0.077,1.998c-2.281,0.022 -4.404,1.755 -4.862,3.989c-0.334,1.629 0.212,3.415 1.405,4.58c1.379,1.347 3.567,1.793 5.376,1.053c2.111,-0.864 3.452,-3.313 3.019,-5.572c-0.425,-2.215 -2.498,-3.998 -4.809,-4.049c-0.043,-0.001 -0.086,-0.001 -0.129,-0.001Z" fill="currentColor" class="color000 svgShape"></path></svg>