<svg xmlns="http://www.w3.org/2000/svg" version="1.1" xmlns:xlink="http://www.w3.org/1999/xlink" width="512" height="512" x="0" y="0" viewBox="0 0 512 512" style="enable-background:new 0 0 512 512" xml:space="preserve" class=""><g><path d="M284.248 135.694H111M76 135.694H36.252c-15.879 0-28.752 12.873-28.752 28.752v246.985c0 15.879 12.873 28.752 28.752 28.752h401.373c15.879 0 28.752-12.873 28.752-28.752V255.247" style="stroke-width:15;stroke-linecap:round;stroke-linejoin:round;stroke-miterlimit:10;" fill="none" stroke="#000000" stroke-width="15" stroke-linecap="round" stroke-linejoin="round" stroke-miterlimit="10" data-original="#000000" class=""></path><path d="M439.68 95.446c-16.561 0-31.278-8.291-40.208-20.928a6.299 6.299 0 0 0-10.339 0c-8.93 12.636-23.647 20.928-40.208 20.928h-46.782c-7.151 0-13.334 5.054-14.687 12.076a185.177 185.177 0 0 0-3.35 35.085c0 73.952 43.284 137.787 105.896 167.574a10.018 10.018 0 0 0 8.603 0C461.216 280.393 504.5 216.558 504.5 142.606c0-12-1.161-23.725-3.35-35.085-1.354-7.022-7.536-12.076-14.688-12.076l-46.782.001z" style="stroke-width:15;stroke-linecap:round;stroke-linejoin:round;stroke-miterlimit:10;" fill="none" stroke="#000000" stroke-width="15" stroke-linecap="round" stroke-linejoin="round" stroke-miterlimit="10" data-original="#000000" class=""></path><path d="M366.484 239.264a62.173 62.173 0 0 0 27.819 6.539c34.493 0 62.455-27.962 62.455-62.455 0-34.493-27.962-62.455-62.455-62.455s-62.455 27.962-62.455 62.455c0 11.76 3.255 22.757 8.906 32.149" style="stroke-width:15;stroke-linecap:round;stroke-linejoin:round;stroke-miterlimit:10;" fill="none" stroke="#000000" stroke-width="15" stroke-linecap="round" stroke-linejoin="round" stroke-miterlimit="10" data-original="#000000" class=""></path><path d="m363.814 180.292 24.081 24.082 40.225-40.225M147.741 335.735H51.812a5 5 0 0 1-5-5V287.12a5 5 0 0 1 5-5h95.929a5 5 0 0 1 5 5v43.615a5 5 0 0 1-5 5zM264 400.097h158.065a5 5 0 0 0 5-5V365.07a5 5 0 0 0-5-5H212.176a5 5 0 0 0-5 5v30.027a5 5 0 0 0 5 5H229" style="stroke-width:15;stroke-linecap:round;stroke-linejoin:round;stroke-miterlimit:10;" fill="none" stroke="#000000" stroke-width="15" stroke-linecap="round" stroke-linejoin="round" stroke-miterlimit="10" data-original="#000000" class=""></path><path d="M422.064 360.07h-63.799v40.027h63.799a5 5 0 0 0 5-5V365.07a5 5 0 0 0-5-5zM46.812 400.097h117.387M48.601 370.111h4.882M78.471 370.111h4.882M108.341 370.111h4.882M289.856 188.587H7.5v56.224h307.294" style="stroke-width:15;stroke-linecap:round;stroke-linejoin:round;stroke-miterlimit:10;" fill="none" stroke="#000000" stroke-width="15" stroke-linecap="round" stroke-linejoin="round" stroke-miterlimit="10" data-original="#000000" class=""></path></g></svg>